<?xml version="1.0" encoding="UTF-8" standalone="no"?>
<!-- Created with Inkscape (http://www.inkscape.org/) -->

<svg
   width="68.791664mm"
   height="68.791664mm"
   viewBox="0 0 68.791663 68.791663"
   version="1.1"
   id="svg5"
   sodipodi:docname="cheteellogoblack.svg"
   inkscape:version="1.1.1 (3bf5ae0d25, 2021-09-20)"
   xmlns:inkscape="http://www.inkscape.org/namespaces/inkscape"
   xmlns:sodipodi="http://sodipodi.sourceforge.net/DTD/sodipodi-0.dtd"
   xmlns="http://www.w3.org/2000/svg"
   xmlns:svg="http://www.w3.org/2000/svg">
  <sodipodi:namedview
     id="namedview13"
     pagecolor="#ffffff"
     bordercolor="#666666"
     borderopacity="1.0"
     inkscape:pageshadow="2"
     inkscape:pageopacity="0.0"
     inkscape:pagecheckerboard="0"
     inkscape:document-units="mm"
     showgrid="false"
     inkscape:zoom="3.2384617"
     inkscape:cx="129.8456"
     inkscape:cy="130.15439"
     inkscape:window-width="1920"
     inkscape:window-height="1027"
     inkscape:window-x="-8"
     inkscape:window-y="-8"
     inkscape:window-maximized="1"
     inkscape:current-layer="svg5" />
  <defs
     id="defs2" />
  <g
     id="layer1"
     transform="translate(17.636572,-9.5237579)"
     style="fill:#ffffff">
    <text
       xml:space="preserve"
       style="font-style:normal;font-weight:normal;font-size:10.5833px;line-height:1.25;font-family:sans-serif;fill:#ffffff;fill-opacity:1;stroke:none;stroke-width:0.264583"
       x="30.251854"
       y="92.330833"
       id="text5276"><tspan
         id="tspan5274"
         style="stroke-width:0.264583;fill:#ffffff"
         x="30.251854"
         y="92.330833" /></text>
    <g
       id="g33917"
       transform="translate(1.5485424,1.3260924)"
       style="fill:#ffffff">
      <path
         id="path28802-8"
         style="fill:#ffffff;fill-opacity:1;stroke-width:0"
         d="m 31.729664,33.356647 c 0.917315,-3.652875 1.518022,-11.879964 -5.042209,-12.514299 -1.760242,-0.16965 -4.891174,-1.453232 -8.570811,-1.59695 -5.780627,-0.225772 -12.3021097,0.726052 -12.3021097,0.726052 3.734928,2.493034 -4.3293875,0.640038 -4.7810349,1.913105 -0.32947095,0.937152 -4.3450856,17.495585 -2.4388118,14.380871 0.029981,-0.128369 0.066459,-0.256322 0.1093867,-0.383714 C 0.04207905,32.1091 7.3610763,23.456915 14.192387,24.11557 c 1.302348,0.126142 4.813702,3.173813 7.090782,2.722928 3.625757,-0.717942 9.65473,4.545486 10.446485,6.518149 z" />
      <path
         id="path28802-6"
         style="fill:#ffffff;fill-opacity:1;stroke-width:0"
         d="m 3.830853,47.484687 c 0.3890036,9.519186 6.337739,12.976225 12.569324,18.640229 4.211838,-3.858837 10.587798,-5.348077 10.810034,-15.26452 0.05044,-2.462911 -0.473691,-4.907557 -1.539754,-7.181955 0.01736,0.334009 0.02377,0.668427 0.01995,1.002813 -0.221606,9.917301 0.748276,11.105265 -10.487246,10.93066 C 7.1072377,55.480467 6.9095097,54.089372 3.8307504,47.484687 Z" />
      <path
         id="path28802-6-9"
         style="fill:#ffffff;fill-opacity:1;stroke-width:0"
         d="m 16.094274,38.039507 c -1.46515,8.11206 1.232257,8.285758 1.232257,8.285758 9.919406,3.955059 14.368257,1.245939 14.262611,-0.566251 -0.05392,-0.925025 -2.099483,1.402067 -3.750502,-0.303334 -2.645608,-2.732751 -6.963921,-5.856939 -11.744366,-7.416173 z" />
      <path
         id="path28802-6-9-0"
         style="fill:#ffffff;fill-opacity:1;stroke-width:0"
         d="m 16.094274,38.039507 c 1.465149,8.11206 -1.232257,8.285758 -1.232257,8.285758 C 4.9426098,50.280324 0.49375955,47.571204 0.59940525,45.759014 0.65332725,44.833989 2.6988878,47.161081 4.349907,45.45568 6.9955147,42.722929 11.313828,39.598741 16.094274,38.039507 Z" />
    </g>
  </g>
</svg>
